<svg width="191" height="150" viewBox="0 0 191 150" fill="none" xmlns="http://www.w3.org/2000/svg">
    <g filter="url(#filter0_d_432_282)">
        <path fill-rule="evenodd" clip-rule="evenodd" d="M90.8513 7.28076L90.8518 7.28046C90.9151 7.24536 90.9622 7.23831 90.9932 7.23831C91.0243 7.23831 91.0714 7.24536 91.1346 7.28046L91.1352 7.28076L153.457 42.0137C155.019 42.8842 156.991 42.3236 157.862 40.7617C158.732 39.1998 158.171 37.2279 156.61 36.3574L94.2857 1.62347L94.2838 1.62245C93.2814 1.06463 92.1535 0.762939 90.9932 0.762939C89.8329 0.762939 88.7051 1.06463 87.7026 1.62245L87.7008 1.62347L25.3769 36.3574C23.815 37.2279 23.2544 39.1998 24.1249 40.7617C24.9954 42.3236 26.9673 42.8842 28.5292 42.0137L90.8513 7.28076ZM42.9988 60.5998C42.9988 58.8117 41.5492 57.3621 39.7611 57.3621C37.973 57.3621 36.5234 58.8117 36.5234 60.5998V117.705C36.5234 122.243 38.1377 126.657 41.1025 129.961C44.0778 133.278 48.1932 135.218 52.5691 135.218H128.064V135.953H140.482C141.924 135.953 142.42 133.649 141.134 132.997C131.463 128.094 113.745 116.999 107.213 99.0425C105.635 94.7042 100.15 77.4667 113.583 76.2567C123.874 75.3298 130.42 89.5401 133.088 96.8392C133.2 97.1451 134.165 96.9566 134.161 96.631C134.095 90.756 135.248 80.7768 143.481 78.2136C161.099 72.7287 164.331 89.2321 162.767 103.548C161.206 117.838 144.049 131.436 144.049 131.436C144.049 131.436 162.264 118.988 166.125 103.548C170.444 86.2759 162.797 67.7768 141.611 75.1234C133.17 78.0501 132.56 84.3136 133.003 87.9409C131.658 83.3732 127.63 74.7575 116.425 75.1234C103.328 75.551 99.5534 85.4047 103.328 99.0425C106.84 111.735 118.27 122.842 125.361 128.743H52.5691C50.1513 128.743 47.7511 127.676 45.9224 125.637C44.0833 123.587 42.9988 120.739 42.9988 117.705V60.5998Z" fill="url(#paint0_linear_432_282)" shape-rendering="crispEdges"/>
    </g>
    <defs>
    <filter id="filter0_d_432_282" x="18.5345" y="0.762939" width="153.931" height="145.55" filterUnits="userSpaceOnUse" color-interpolation-filters="sRGB">
        <feFlood flood-opacity="0" result="BackgroundImageFix"/>
        <feColorMatrix in="SourceAlpha" type="matrix" values="0 0 0 0 0 0 0 0 0 0 0 0 0 0 0 0 0 0 127 0" result="hardAlpha"/>
        <feOffset dy="5.1803"/>
        <feGaussianBlur stdDeviation="2.59015"/>
        <feComposite in2="hardAlpha" operator="out"/>
        <feColorMatrix type="matrix" values="0 0 0 0 0 0 0 0 0 0 0 0 0 0 0 0 0 0 0.25 0"/>
        <feBlend mode="normal" in2="BackgroundImageFix" result="effect1_dropShadow_432_282"/>
        <feBlend mode="normal" in="SourceGraphic" in2="effect1_dropShadow_432_282" result="shape"/>
    </filter>
    <linearGradient id="paint0_linear_432_282" x1="95.5" y1="0.762939" x2="95.5" y2="135.953" gradientUnits="userSpaceOnUse">
        <stop stop-color="#002068"/>
        <stop offset="0.9999" stop-color="#004EFF" stop-opacity="0.498125"/>
        <stop offset="1" stop-color="#5186FF" stop-opacity="0.34"/>
    </linearGradient>
    </defs>
</svg>
