<svg width="128" height="121" viewBox="0 0 128 121" fill="none" xmlns="http://www.w3.org/2000/svg">
    <g filter="url(#filter0_d_422_229)">
        <path fill-rule="evenodd" clip-rule="evenodd" d="M10.437 34.5255L60.6639 6.53348L110.891 34.5255C112.453 35.396 114.424 34.8355 115.295 33.2736C116.165 31.7116 115.605 29.7398 114.043 28.8693L63.6283 0.772526L63.6265 0.771503C62.7259 0.270356 61.7103 -0.00183105 60.6639 -0.00183105C59.6174 -0.00183105 58.6018 0.270356 57.7012 0.771503L57.6994 0.772527L7.28473 28.8693C5.7228 29.7398 5.16227 31.7116 6.03276 33.2736C6.90324 34.8355 8.87511 35.396 10.437 34.5255ZM22.4592 49.0197C22.4592 47.2316 21.0096 45.782 19.2215 45.782C17.4334 45.782 15.9838 47.2316 15.9838 49.0197V95.2125C15.9838 99.0274 17.3402 102.747 19.8461 105.54C22.3623 108.345 25.8552 109.998 29.5821 109.998H91.7456C91.8815 109.998 92.0153 109.99 92.1468 109.974H99.327C100.77 109.974 101.284 107.629 100.01 106.954C91.9972 102.71 78.805 93.9194 73.784 80.1166C72.5075 76.6073 68.0713 62.6636 78.9371 61.6848C86.9047 60.9672 92.0975 71.4668 94.4199 77.5455C94.5361 77.8497 95.5796 77.6473 95.5843 77.3216C95.6544 72.5118 96.8421 65.2229 103.122 63.2678C117.374 58.8309 119.988 72.1808 118.723 83.7614C117.46 95.3202 103.581 106.32 103.581 106.32C103.581 106.32 118.316 96.2509 121.439 83.7615C124.933 69.7895 118.747 54.8253 101.609 60.768C94.7814 63.1355 94.288 68.2021 94.6458 71.1363C93.5579 67.4414 90.2996 60.4721 81.2358 60.768C70.6413 61.114 67.5883 69.0848 70.6415 80.1166C73.3645 89.9556 81.9686 98.6169 87.7293 103.523H29.5821C27.8133 103.523 26.0357 102.743 24.666 101.216C23.2859 99.6779 22.4592 97.5231 22.4592 95.2125V49.0197Z" fill="url(#paint0_linear_422_229)" shape-rendering="crispEdges"/>
    </g>
    <defs>
        <filter id="filter0_d_422_229" x="0.442323" y="-0.00183105" width="127.115" height="120.361" filterUnits="userSpaceOnUse" color-interpolation-filters="sRGB">
            <feFlood flood-opacity="0" result="BackgroundImageFix"/>
            <feColorMatrix in="SourceAlpha" type="matrix" values="0 0 0 0 0 0 0 0 0 0 0 0 0 0 0 0 0 0 127 0" result="hardAlpha"/>
            <feOffset dy="5.1803"/>
            <feGaussianBlur stdDeviation="2.59015"/>
            <feComposite in2="hardAlpha" operator="out"/>
            <feColorMatrix type="matrix" values="0 0 0 0 0 0 0 0 0 0 0 0 0 0 0 0 0 0 0.25 0"/>
            <feBlend mode="normal" in2="BackgroundImageFix" result="effect1_dropShadow_422_229"/>
            <feBlend mode="normal" in="SourceGraphic" in2="effect1_dropShadow_422_229" result="shape"/>
        </filter>
        <linearGradient id="paint0_linear_422_229" x1="64" y1="-0.00183105" x2="64" y2="109.998" gradientUnits="userSpaceOnUse">
            <stop stop-color="#002068"/>
            <stop offset="0.9999" stop-color="#004EFF" stop-opacity="0.498125"/>
            <stop offset="1" stop-color="#5186FF" stop-opacity="0.34"/>
        </linearGradient>
    </defs>
</svg>
